<?xml version="1.0" encoding="utf-8"?>
<!-- Generator: Adobe Illustrator 21.0.0, SVG Export Plug-In . SVG Version: 6.00 Build 0)  -->
<svg version="1.1" id="Слой_1" xmlns="http://www.w3.org/2000/svg" xmlns:xlink="http://www.w3.org/1999/xlink" x="0px" y="0px"
	 viewBox="0 0 500 500" style="enable-background:new 0 0 500 500;" xml:space="preserve">
<style type="text/css">
	.st0{display:none;}
	.st1{display:inline;}
	.st2{display:inline;fill:none;}
	.st3{fill:#FF0000;}
</style>
<g id="Layer_1" class="st0">
	<rect x="-53" y="-13" class="st1" width="618" height="536"/>
	<image style="overflow:visible;enable-background:new    ;" width="500" height="500" xlink:href="3A34BA61.png" >
	</image>
	<path class="st2" d="M0,0"/>
</g>
<g id="Слой_2" class="st0">
	<path class="st3" d="M271,286.3l-1.3,1.8l-1.8,1.7l-1.7,1l-1.9,0.3l-2.7-0.5l-2.1-1.2l-2.6-3.1V238h-1l-38.3,39.1l-2,1l-2.9,0.3
		l-2.8-0.5l-2.1-1.3l-1.4-1.8l-0.4-2.6l-0.3-2.6l0.8-2.7l41.5-43l-1.2-2.6v-6.1l1.6-5.3l2.8-3.8l4.6-4l1-0.1v-58l3.1-1.8l3.9-0.8
		l4.4,0.8l2.6,1.8v59.7l3.9-4.2l3.3-3.5l4.2-0.2l3.5,1.5l2.1,2.2l0.6,4.2l-0.5,3l-1.9,2.4l-4.1,3.9v4.8v3.8l-0.6,2.8l-1.8,3.4
		l-3.1,3l-2.8,2.9l-2.8,1.7v50.9H271z M191.2,138.5c-5.1,0-9.2,4.1-9.2,9.2c0,5.1,4.1,9.2,9.2,9.2c5.1,0,9.2-4.1,9.2-9.2
		S196.3,138.5,191.2,138.5z M263.2,108.5c-5.1,0-9.2,4.1-9.2,9.2s4.1,9.2,9.2,9.2s9.2-4.1,9.2-9.2
		C272.4,112.6,268.3,108.5,263.2,108.5z M334.5,137.9c-5.1,0-9.2,4.1-9.2,9.2c0,5.1,4.1,9.2,9.2,9.2s9.2-4.1,9.2-9.2
		S339.5,137.9,334.5,137.9z M365.2,209.9c-5.1,0-9.2,4.1-9.2,9.2c0,5.1,4.1,9.2,9.2,9.2s9.2-4.1,9.2-9.2
		C374.4,214,370.3,209.9,365.2,209.9z M335,282.8c-5.1,0-9.2,4.1-9.2,9.2s4.1,9.2,9.2,9.2s9.2-4.1,9.2-9.2S340,282.8,335,282.8z
		 M191.2,283.3c-5.1,0-9.2,4.1-9.2,9.2s4.1,9.2,9.2,9.2c5.1,0,9.2-4.1,9.2-9.2S196.3,283.3,191.2,283.3z M163.2,210.3
		c-5-1-9.8,2.3-10.8,7.3s2.3,9.8,7.3,10.8s9.8-2.3,10.8-7.3S168.2,211.2,163.2,210.3z M263.2,313.5c-5.1,0-9.2,4.1-9.2,9.2
		s4.1,9.2,9.2,9.2s9.2-4.1,9.2-9.2C272.4,317.6,268.3,313.5,263.2,313.5z M165.8,284.6l-4.9-8.1l-5-9.3l-3.8-10.2l-3.9-13.9
		l-1.9-15.9l0.8-17.8l2.4-15.3l3.6-11.5l5.1-12L165,159l7.3-9.8l8-10l12.8-11.2l12-7.4l15.5-7.8l15.4-4.4l9.2-2.3l34.7-0.1l12.1,3.2
		l13.1,3.6l11.5,5.6l11.1,7.1l9.8,7.4l8,6.9l7.3,8.6l7,10l6,11.1l5,11.4l2.9,7.6l1.9,7.6l1.9,11.1l1.3,13.5l-1.1,14.8l-2.3,12.5
		l-4.6,13.3l-3.8,9.3l-5.3,9.9l19,8.7l7.8-17.2l3.2-9.1l2.3-8.1l0.9-7.5l0.6-8.8l0.9-16.5l-1-19.8l-1.3-10.8l-1.7-8.2l-3.2-8.9
		l-7.6-17.5l-6.5-11l-8.5-10.6l-8-8.3l-9-9.4l-11.3-9.2l-12.5-6.9l-13.5-6.3l-14.6-4.9l-17.4-2.7h-38.2l-12,2.2l-14.9,5l-16.9,7.6
		l-8.2,4.4l-8.2,5.5l-13.1,11.6L158,135.4l-9.9,12.8l-7,12.5l-6.5,15.6l-4.5,15.5l-2.3,17.6v19.8l1.8,19.3l3.9,15.7l5.6,13.3
		l5.3,10.6l6.4,10.8l12.3,14.6l14-14.7L165.8,284.6z M155.1,404.5l-3.7-2.8l-4.4-1.2l-5.2,0.7l-2.8,2.9l-1.2,3.1v4.2l10.9,18.9
		l1.4,1l3,0.9l3.3,0.3l3.1-0.3l2.6-0.9l1.6-2.7l0.5-3.6v-3l-0.6-2.6L155.1,404.5z M287.8,375.4l9.8-4.9l7.9-4.9l9-8.5l12.3-15.5
		l5.9-7.2l8.5-10.1l6.1-6.4l6-4.2l3.3-0.8l1.9-0.2l1.5,0.5l0.6,1.4l-1.9,4.4l-4.2,7.8l-4.8,8l-4.9,7.8l-5.4,7l-5.9,8.1l-7.6,8.9
		l-7.6,7.8l-6.6,6.6l-6.1,5.8l-6.8,5.9l-6.7,4.8l-9.7,5.6h-12.8l-28.2-0.3H181l-27.6-46.3l-19,4.8L159,406l11.6,19.1l0.4,2.6
		l-20,11.6l-8.5-14.9l-9.8-17.2l-10.3-18.3l-6.8-11.1L105,359.9l-0.1-1.8l20.7-11.4l1.3,2.1l7.2,12.7l19-4.8l18.5-14.9l9.1-6.4
		l7.1-2.9l10.8-0.6l9.5,1.6l8.5,2.9l10.1,3.4L238,342l12,1.8l13.2,0.1l13.7-2.6h8.5l9.4,3l12.4-12.3l-4.5-4.3l-10.1-4.3l-13.5-0.1
		l-18.8,1.4l-12.6,0.1l-11-2l-9-2.7l-9.4-2.9l-9-2.4l-11.1-0.6l-11,0.1l-8,1.3l-9.7,4.2l-9.6,6.7L143.6,338l-6.8-8.8l-4.6-1.7
		l-9.8,0.2l-4.8,1.5L93.8,343l-7.2,6.1v16.5l12.8,22.3l14.1,24.8l12,20.6L135,450l5.8,7.8l6.1,1l5.3,0.3l6.8-1.5l29.4-17.4l2.3-2.3
		l1.3-4l-0.3-11.8h49.4H271l14.1-0.8l15-6.1l8.8-5.7l6.8-6.3l8.5-7.1l7.3-7.3l8.4-9.1l7.6-8.8l6.1-7.4l7.2-10.1l6-9.4l5.8-10.3
		l5.3-11.4l2.2-8.8v-5.3l-1.4-5.8l-4.9-5.3l-6.9-3.3l-8.1-1l-10.6,2.6l-12.4,7.1l-9.8,9.4l-8.7,10.4l-6.3,9.3h-4l-12.4,12.3v4.4
		l-4.5,4l-8.1,4.3l-8.3,3.1h-51v19.4h51L287.8,375.4z"/>
	
		<image style="display:inline;overflow:visible;enable-background:new    ;" width="500" height="500" xlink:href="icon_crowd.png"  transform="matrix(1 0 0 1 0.2083 4.166667e-02)">
	</image>
</g>
<path class="st3" d="M294,359.1l-13,1.3l0.3-13.2l1.1-7.2l6.9-8.4v-4.3l3.2-9.2l5.6-4l0.3-14.1l0.7-20.9l-1.7-5.8l-2.7-4.9l-4.1-3.5
	l-4-2.7l-8.2-3.9l-6.6-2.1l-13.5-0.1l-9,3.1l-4.5,4.1l-9.9,2l-6.6,8.5l-1.6,7.4l-0.4,4.9l0.8,7.7l2.2,9.2l-1,8.1l1,2.7l6.4,6.4
	l1.5,2.9l0.6,5.2l0.5,3.8l3.1,4.9l3.6,4.3l0.2,23l-5.1,5.3l-6.1,3.7l-9.4,1.8l-10.1,4.7l-6,3.5l-4,5.8l-2.4,4.8l-1.7,7.7l-0.1,4
	l1.8,2.9l3.5,1.7l7.6,2.4l6.9,1.8l7.2,0.8l11.8,1.5l7.2,1.3l18.8,1.1l16.1-1l11-1.3l15.5-2.7l11.1-3l7.2-3.2l2-3.8l-0.3-6.8
	l-3.3-5.9l-4.9-6.8l-4.6-4.6l-7.8-2.5l-10.4-3.4l-7.1-3.2l-5.5-4.2l-3.1-6.3L294,359.1l2.6,1.8l4.8,2.1l7.2,2.1l9.1,3.6l7.9,4.6
	l4.8,5l4.1,7.4l2.9,7.4l1.9,8.4v6.3l-1.1,4l-5.8,5.8l-10.2,5l-12.9,3.3l-15.5,2.5l-13,0.7l-16,0.8l-19.3-0.8h-7.7l-11.7-2l-4.5-0.7
	l-6.3-1l-7.3-1.8l-8.4-3.3l-7.8-5.3l-3.5-5.1V399l2.2-8.5l3.5-7.3l4.9-7.4l5.4-4.5l6.7-3.1l9.1-3.5l8.2-2.4l5-3.4l-0.5-12.9
	l-2.9-4.2l-3.7-10.3l-1.5-4.4l-5.6-7.7l-2.8-6.4v-9l-1.1-12.4l0.2-15.2l1.1-5l3.9-8.4l6.7-6.7l4.2-2.1l10.5-4.2l11.5-4.9l22.8,0.3
	l8.6,2.6l10.1,4.1l5.3,5.1l4.1,5l4.6,8l2.5,5.9v12l-0.5,20.5l-1.9,10.3l-6.6,7.8l-0.4,3.2l-3.3,9.2L294,347V359.1z M349.2,379.7
	l4.3,12h35.3l-1.1-12H349.2z M398.7,378.1l11.4-1.2l9.9-3.1l3.8-3.1l0.3-6.6l-3.5-9.2l-4.5-6l-7.7-2.9l-9-3l-8.5-3.3l-5.9-5
	l-3.4-8.4l-0.9-13l6-8.7l4-8.7l1.1-4.9l4.8-4.4l2.5-3.9V250l-4.2-4.9l-5-5l-3.6-1.7l-4.9-0.1l-5,1.9l-8.3-4.2h-15.5l-6.4,3.1l-5.6,5
	l-3.9,7.4l-0.8,7.3l1,9.4l0.4,15.1l1.1,2.8l3.8,2.5l3.4,6.8l3.6,9.8l5.7,7l0.3,9.7l-3.1,9l-5.3,6.6l-7,3.8l-10.1,3.6l-6.5,2.1
	l-3.2,2.1l-3.1,2.7l-5.7-1.5l0.7-3.4l3-7.7l5.8-4.3l7.4-1.7l7.7-2.7l6.3-5.4l0.6-8.8l-5.9-8.9l-4-10.1l-4.4-5.5l-1.1-11l-2.2-8.8
	v-24.5l3.9-7.7l4.8-6.9l7.1-4.6l9.7-4H370l5.5,2.9h11.6l6.1,1.6l7.7,4.7l4.1,3.8l4.4,7.8l1.9,9.9l-1.3,32l-3.1,6.1l-4.5,5.4
	l-4.5,10.3l-4.6,7.3l0.5,9.2l4,3.6l7.5,3.6l7.8,2.4l9.1,4.1l5.4,4.7l4.8,8.4l4,9v5.5l-0.5,7.4l-3.6,6.1l-6.1,3l-13.1,4.9l-13.1,1.7
	l-11.2,2l-1.1-12 M181.4,374.3l-3.9,5.8l-2.1,7.7h-17.8H128l-13.5-0.8l-19.2-4.7L83,376.6l-5.7-7.2v-10.6l3.6-10.5l6.5-10.3l8.2-5.9
	l13.7-4.2l2.1-2.3l-8.3-3.6l-8.2-5.7l-3.8-6.5l5-6.3l2.3-5.9l2.5-13.6l1.2-15.1l0.5-22l3.5-10.8l7.2-8.6l7-4.1l9.5-2.5l3.5-0.8
	l3.2,1.1l6.9,0.3l2.3,1.7l1.9-2l5.3-0.3l5.3-0.8l3.2,1l6.6,0.4l6.8,3.4l8.1,8.5l4.2,6.2l1.6,8.7l0.4,3l-0.8,3.1l0.4,14.7l1.6,17.8
	l3.4,13.4l1.4,3.6l2.4,2.6l1.6,3.1l-1.2,4l-3.2,3.4l-1.8,2.2l-3.4,2.3l-3.8,2.5l-5.3,0.1l-1.5,1.8l1.6,2.1h4.8l0.1,1.4l6,1.1l6.8,3
	l3.3,3.3l2.8,2.5l3.4,3.7l2.1,3.9l1.6,3.7l-10.4,5.3l-2.1-3.6l-2.2-3.1l-3-4.5l-4-1.7l-7.7-3.3l-8-1.7l-5.1-3.1l-4.6-3.3l-5-4.8
	l-1-13.9l19.6,0.2l6.4-3.1l-2.7-8.3l-2.2-15l-3.2-17l0.2-15.7l0.9-2l-0.4-2.2l-2.4-8.2l-8.9-8.5l-3.4-1.1l-9,0.4l-4.8,1.2l-3.5,2.5
	l-6.9-4.2l-8.2,0.2l-5.3,2.1l-5.1,3.9l-4.8,7.8l-1.1,27.9l-0.6,12.8l-3.2,13.6l-3.2,9.4l7.2,3.2H133l-1.6,12.6l-4.4,5.9l-8.1,5.5
	l-11.8,3.5l-9.2,4.4l-5.5,6.5l-2.8,8v8.1l8.9,3.8l17.5,3l14.4,1.7l9.6,1.1l18.6-0.7l10.9-1.5L181.4,374.3z M293.1,220.9l-0.8-7
	l-1.4-8.3l-3.5-6.6l-5.9-7.8l-5.4-3.8l-10.4-5.2l-8-1.8l-9.7-0.5l-11.1,1l-5.8,2.3l-7.1,3.6l-10.7,5l-5.9,5.2l-3.2,7.6l-2,4.7v20.4
	l0.8,5.7l0.5,7.4l1.3,6.2l3,5l8.7-8.3l-1.4-4.8l1.3-5.1l-1.3-5.6l-0.8-7V211l4.1-7.3l4.8-3.9l7.7-1.8l6.6-4.8l7.8-1.4h7l6.8,1.3
	l5.7,1.6l7.2,4.1l4.6,5.4l4.5,10.1v16.4l11.3,2.7L293.1,220.9z M309.9,244.6l2.8-7.7l3.1-5.6l5.9-7.3l0.5-10.2V200v-3.9l4.7-7.6
	l5.1-5.9l5.1-2.1l5.4-0.5l4.8,0.6l6.2,3.3l1.3,0.3l2.1-2l3.4-1.8l6.3-0.4l5.7,0.4l2,2.1l3.3,1.1l3.4,3.9l3,5.1l1.1,4.1v14.4l8.3,0.2
	l3.6,2.9l0.3-7.4v-13.3l-2.3-5.1l-1.5-3.9l-2.3-3.9l-4.2-4.4l-3.9-2.8l-5.9-1.9l-1.1-2.1h-4.8l-4.2-2l-10.7,2.8l-2.8,0.5l-3.2-1.3
	l-4.3-1.1l-8.8,0.1l-7.9,2.1l-7.4,4.7l-5.8,6.4l-3.4,6.1l-1.9,7.1l0.4,18.5l-2.1,13.4l-1.1,13.4l-1.1,2.4L309.9,244.6z M119.3,207
	l-1.2-7.3l1.2-8l1.8-7.5l5.8-8l6.5-6.2l6.2-2.8l6.3-1.2h4.2h6.2l8.3,4.7l7.2,5.5l4.7,7.7l2.5,6.8l1.3,9l-1,7.3v1.7l7.8,5.2v-7.5
	l1-3.8l2-5l2.7-4.3l-2.3-4.8l-2.8-8.3l-3.2-8l-6.3-6l-6.8-7l-8-2.8l-6-2.2h-16.2l-9.3,1.8l-5.5,4.2l-8.2,6l-6.5,8.7l-2.7,8.5
	l-1.3,7.3l-2,2.3v15.3l-0.8,1v6L119.3,207z M389.8,151.8l-1.2-3.5l1.2-11.8l-1.8-4.7l-1.5-7.8l-4.5-9.3l-6-6.7l-5.5-4.3l-7.2-3.3
	l-8-2.3l-7.2-1l-9.2,2l-5.8,3.5l-7,4l13.2,7.2l2.7-2.3l6-0.3l2.2-1.3l6.7,1.5l8,3l4.8,5.5l3.8,4.2l1,3.2l2.2,4.5l0.7,12.5v8.7
	l3.8,1.8l8.7,3.7V151.8z M343.5,142.7l-3.8-7.2l-5-6.3l-7-5.3l-8.8-3h-4.3l-7.6-2.2l-9,0.8L289,122l-5.3,3.8l-8.5,3.8l-5.7,5.8
	l-3.3,7.8l-0.7,10.3V166l6.2,1.8l7.3,3.7l-1-10l-1.3-7.5l1.2-7l2.5-6.3l4.3-3.2l5.8-0.5l5.5-5.3l4,1.2l8.3-2.2l4.3,1.5l5.5,1.5
	l6,2.2l5.5,5.8l2.5,6v4.7h13.2L343.5,142.7z M246.6,154l-1.1-6.6l-1.8-3.2l-2.8-5.7l-5.4-5.8l-7.3-4.3c0,0-4.8-2-5.1-2
	s-5.8,0.9-5.8,0.9l-4,0.5l-3.9-2.3l-6.9-1.4l-4.9-1.8l-5,1.3L186,125l-10,5l-5.4,3.8l-4,6.5l10.9,4.8l3.5-3.2l3.9-1.9l5.3-4.6h13.4
	l5.9,4.5l4.6,0.6l5.3-2.3l7.3,2l4.5,6l3.1,5.5l-1.1,3.6v10.5l11.9-1.1L246.6,154z M291.5,97.8l-3.9-5.6l-7.1-4.8l-6.1-1.7l-4.3-1.3
	l-4.9-0.3l-3.6,0.9l-3.9,1.8l-3.3-0.6l-8.9-2.2l-7.4,1.7l-6.9,2.8l-6.3,5l-3.8,5.6l-2.7,6.3l-0.4,5.8h7.7l3.3,1.9l1.6-5.3l2.3-4.3
	l3.8-3.9l3.7-2.2l4.8-1.5l5.1,0.8l1.9,1.3l3.9,2.5l2.2-0.8l3.3-2.7l5.8-1.2l6.8,0.4l3.1,4.3l3.7,3.4l1.9,5l11.8-4.5L291.5,97.8z
	 M199.2,104.2l-2.8-3.6l-3.6-3.1l-3.3-1.8l-6.8-2.4l-4.5-2.1h-19.2l-4.6,1.4l-6.2,3.1l-7.5,2.8l-7.4,4.6l-4.5,7.6l-2.8,9.3v10.1
	l1.3,8.2l0.6,3.3l12.6-2.4l-1.8-7.6l-1.1-6.1l1.1-5.9l1.9-5.1l3.8-3.6l2.9-1.9l4.8-0.7l5-3.1l5.2-1.8l5.4-1.3l4.6,1.1l4.8,1.1
	l5.7,2.2l4.1,2.9l14.3-1.1L199.2,104.2z"/>
</svg>
