<?xml version="1.0" encoding="utf-8"?>
<!-- Generator: Adobe Illustrator 21.0.0, SVG Export Plug-In . SVG Version: 6.00 Build 0)  -->
<svg version="1.1" xmlns="http://www.w3.org/2000/svg" xmlns:xlink="http://www.w3.org/1999/xlink" x="0px" y="0px"
	 viewBox="0 0 500 500" style="enable-background:new 0 0 500 500;" xml:space="preserve">
<style type="text/css">
	.st0{fill:none;enable-background:new    ;}
	.st1{fill:none;stroke:#F90B0B;stroke-width:30;stroke-miterlimit:10;}
	.st2{fill:#FC0000;stroke:#F90B0B;stroke-width:5;stroke-miterlimit:10;}
</style>
<g id="Слой_2">
	<rect x="-51" y="-15" width="646" height="678"/>
</g>
<g id="Layer_1">
	<image style="overflow:visible;" width="500" height="500" xlink:href="14A3E4C0.png" >
	</image>
	<path class="st0" d="z"/>
</g>
<g id="Слой_3">
	<polyline class="st1" points="207.4,124.4 341.4,124.4 381.5,136.5 414,153.7 440.5,186.5 454.5,211.5 460.5,237.5 463,268 
		456,297.8 439.4,330.4 421.8,353 397.4,371.7 370.5,382.5 336,389 298,388.8 145.7,389.5 	"/>
	<polyline class="st1" points="338.8,388.5 275,375 256.5,357 232.5,331 215.7,300.3 208.5,268 211.7,231.7 222,198 239.7,169 
		272,147 290.3,138.3 358.8,127.6 	"/>
	<line class="st1" x1="162.3" y1="122.8" x2="106.8" y2="122.8"/>
	<line class="st1" x1="62.3" y1="189.7" x2="223.7" y2="189.7"/>
	<line class="st1" x1="23.3" y1="255.3" x2="77.3" y2="255.3"/>
	<line class="st1" x1="119.7" y1="255.3" x2="209.6" y2="255.3"/>
	<line class="st1" x1="166.3" y1="322.3" x2="221.7" y2="322.3"/>
	<line class="st1" x1="77.3" y1="322.3" x2="124.7" y2="322.3"/>
	<circle class="st2" cx="334.2" cy="294" r="4.4"/>
	<circle class="st2" cx="302.1" cy="275.4" r="4.4"/>
	<circle class="st2" cx="365.9" cy="275.4" r="4.4"/>
	<circle class="st2" cx="365.9" cy="238.8" r="4.4"/>
	<circle class="st2" cx="334.2" cy="220.4" r="4.4"/>
	<circle class="st2" cx="302.1" cy="238" r="4.4"/>
	<ellipse class="st2" cx="334.7" cy="257.1" rx="25" ry="23.5"/>
</g>
</svg>
